<svg xmlns="http://www.w3.org/2000/svg" width="24" height="24" viewBox="0 0 24 24">
    <g fill="none" fill-rule="evenodd">
        <g fill="#9B9B9B" fill-rule="nonzero">
            <g>
                <g>
                    <g>
                        <path d="M11 22C4.95 22 0 17.05 0 11S4.95 0 11 0s11 4.95 11 11-4.95 11-11 11zm0-19.8c-4.84 0-8.8 3.96-8.8 8.8 0 4.84 3.96 8.8 8.8 8.8 4.84 0 8.8-3.96 8.8-8.8 0-4.84-3.96-8.8-8.8-8.8z" transform="translate(-718 -371) translate(689 363) translate(29 8) translate(1 1)"/>
                        <path d="M15.4 9.9L12.1 9.9 12.1 6.6 9.9 6.6 9.9 9.9 6.6 9.9 6.6 12.1 9.9 12.1 9.9 15.4 12.1 15.4 12.1 12.1 15.4 12.1z" transform="translate(-718 -371) translate(689 363) translate(29 8) translate(1 1)"/>
                    </g>
                </g>
            </g>
        </g>
    </g>
</svg>
