<svg xmlns="http://www.w3.org/2000/svg" width="24" height="24" viewBox="0 0 24 24">
    <g fill="none" fill-rule="evenodd">
        <g fill="#9B9B9B" fill-rule="nonzero">
            <g>
                <g>
                    <g>
                        <g>
                            <path d="M18.7 22H3.3c-.66 0-1.1-.44-1.1-1.1V7.7h2.2v12.1h13.2V7.7h2.2v13.2c0 .66-.44 1.1-1.1 1.1zM20.9 3.3h-6.6V1.1c0-.66-.44-1.1-1.1-1.1H8.8c-.66 0-1.1.44-1.1 1.1v2.2H1.1C.44 3.3 0 3.74 0 4.4c0 .66.44 1.1 1.1 1.1h19.8c.66 0 1.1-.44 1.1-1.1 0-.66-.44-1.1-1.1-1.1z" transform="translate(-577 -371) translate(551 363) translate(26 4) translate(0 4) translate(1 1)"/>
                        </g>
                    </g>
                </g>
            </g>
        </g>
    </g>
</svg>
